<?xml version="1.0" encoding="UTF-8"?>
<svg viewBox="0 0 324.97 293.25" xmlns="http://www.w3.org/2000/svg">
 <defs>
  <linearGradient id="b" x1=".76634" x2=".41474" y1=".43412" y2=".72556">
   <stop stop-color="#d40000" offset="0"/>
   <stop stop-color="#7c0404" offset="1"/>
  </linearGradient>
  <radialGradient id="a" cx="303.67" cy="370.01" r="51.98" gradientTransform="matrix(1 0 0 .86842 0 49.825)" gradientUnits="userSpaceOnUse">
   <stop stop-color="#fff" offset="0"/>
   <stop stop-color="#ababab" offset="1"/>
  </radialGradient>
 </defs>
 <path d="m290.43 146.62a143.38 143.96 0 1 1 -286.77 0 143.38 143.96 0 1 1 286.77 0z" fill="#bfbfbf" stroke="#000" stroke-width="6.564"/>
 <path d="m67.813 205.6c0 25.444 10.666 60.458 42.885 73.453 34.744 14.014 103.37-18.11 118.21-44.377-26.92-27.362-161-91.94-161.09-29.076z" stroke-width="2"/>
 <g stroke-width="1.701">
  <path d="m82.273 236.55c5.0078 14.544 14.757 28.32 31.5 35.031 4.3279 1.7347 9.3134 2.6051 14.656 2.7812 1.3418-2.5064 2.0625-5.1311 2.0625-7.8438 0-14.559-20.588-26.774-48.219-29.969z" fill="url(#b)"/>
  <path d="m104.68 188.4c-15.755-0.18366-26.725 5.7988-26.75 22.125 0 4.6437 0.41823 9.6797 1.375 14.812l76.312 16c5.6883 1.1929 12.144-2.1242 14.5-7.4375l9.4375-21.281c-23.587-12.463-53.59-23.971-74.875-24.219z" fill="#f2f2f2"/>
  <path d="m109.64 192.89l-3.5586 21.104h0.34767c-2.0655 13.153-10.201 10.812-17.66 10.812-3.7146 0-7.171-1.1075-10.062-3 0.16536 1.1753 0.37206 2.3419 0.59376 3.5312l76.312 16c5.6883 1.1929 12.144-2.1242 14.5-7.4375l9.4375-21.281c-0.97333-0.51428-1.9746-1.0209-2.9688-1.5312l-6 15.594h-0.3125c-4.5677 10.955-7.3894 11.022-13.014 11.022-8.0243 0-18.914-1.1298-16.299-19.49h-0.125v-1.125c-0.054901-0.72397-0.0625-1.4755-0.0625-2.2188 0-0.74329 0.007599-1.4635 0.0625-2.1875l1.6953-14.524-2.5391 17.524h-0.15625c-1.7608 21.85-7.7851 15.865-15.5 14.594-8.5678-1.4121-19.533 1.783-15.719-17.781 0.093491-0.47949 0.028267-0.99014 0.0625-1.4688h-0.0625l0.2813-1.9062c0.015739-0.092834 0.014229-0.18896 0.031242-0.28125l0.7148-15.947z" fill="#ccc"/>
 </g>
 <g stroke-width="2">
  <path d="m324.97 112.13a36.154 34.786 0 1 1 -72.307 0 36.154 34.786 0 1 1 72.307 0z" fill="url(#a)"/>
  <path d="m271.31 108.96a39.327 37.959 0 1 1 -78.654 0 39.327 37.959 0 1 1 78.654 0z" fill="url(#a)"/>
  <path d="m260.78 124.35a14.705 13.679 0 1 1 -29.41 0 14.705 13.679 0 1 1 29.41 0z"/>
  <path d="m254.87 117.24a7.6875 3.1243 0 1 1 -15.375 0 7.6875 3.1243 0 1 1 15.375 0z" fill="#fff"/>
  <path d="m316.78 124.35a14.705 13.679 0 1 1 -29.41 0 14.705 13.679 0 1 1 29.41 0z"/>
  <path d="m310.87 117.24a7.6875 3.1243 0 1 1 -15.375 0 7.6875 3.1243 0 1 1 15.375 0z" fill="#fff"/>
 </g>
</svg>
